<!DOCTYPE svg PUBLIC "-//W3C//DTD SVG 1.1//EN" "http://www.w3.org/Graphics/SVG/1.1/DTD/svg11.dtd">
<!-- Uploaded to: SVG Repo, www.svgrepo.com, Transformed by: SVG Repo Mixer Tools -->
<svg width="800px" height="800px" viewBox="-11.35 0 54.694 54.694" xmlns="http://www.w3.org/2000/svg" fill="#000000">
<g id="SVGRepo_bgCarrier" stroke-width="0"/>
<g id="SVGRepo_tracerCarrier" stroke-linecap="round" stroke-linejoin="round"/>
<g id="SVGRepo_iconCarrier"> <g id="reward_money" data-name="reward money" transform="translate(-42.936 -414.718)"> <path id="Path_131" data-name="Path 131" d="M67.486,440.664l-8.643,2.315,6.947,25.932,3.195-4.474,5.45,2.159-6.949-25.932Z" fill="#e23a44" fill-rule="evenodd"/> <path id="Path_132" data-name="Path 132" d="M50.384,440.664l8.643,2.315L52.08,468.912l-3.2-4.474L43.436,466.6l6.949-25.932Z" fill="#e23a44" fill-rule="evenodd"/> <path id="Path_133" data-name="Path 133" d="M58.935,415.218v0a12.863,12.863,0,0,0,15.5,8.947h0v0a12.86,12.86,0,0,0,0,17.894v0h0a12.862,12.862,0,0,0-15.5,8.947v0a12.862,12.862,0,0,0-15.5-8.947h0v0a12.864,12.864,0,0,0,0-17.894v0h0a12.863,12.863,0,0,0,15.5-8.947v0Z" fill="#56ae89" fill-rule="evenodd"/> <path id="Path_134" data-name="Path 134" d="M46.409,455.488l3.441-12.839m7.747,5.658-5.517,20.6-3.2-4.475L43.436,466.6l2.076-7.75m25.947-3.358-3.378-12.6m-7.7,5.85,5.407,20.174,3.195-4.475,5.45,2.159-2.076-7.75M58.935,437.59v1.119m0-11.186v1.118M56.7,435.353a2.237,2.237,0,1,0,2.237-2.237m2.237-2.237a2.237,2.237,0,1,0-2.237,2.237m0-17.9v0a12.863,12.863,0,0,0,15.5,8.947h0v0a12.86,12.86,0,0,0,0,17.894v0h0a12.862,12.862,0,0,0-15.5,8.947v0a12.862,12.862,0,0,0-15.5-8.947h0v0a12.864,12.864,0,0,0,0-17.894v0h0a12.863,12.863,0,0,0,15.5-8.947v0Z" fill="none" stroke="#0f0e0b" stroke-linecap="round" stroke-linejoin="round" stroke-width="1"/> </g> </g>
</svg>