<svg xmlns="http://www.w3.org/2000/svg" xmlns:xlink="http://www.w3.org/1999/xlink" width="113" height="54" viewBox="0 0 113 54">
    <defs>
        <path id="a" d="M0 .057h4.525v18.646H0z"/>
        <path id="c" d="M.449.221h44.403v53.244H.449z"/>
        <path id="e" d="M.047.335h30.567v22.291H.047z"/>
    </defs>
    <g fill="none" fill-rule="evenodd">
        <path fill="#3dc00f" d="M29.351 6.067l-.68.124c-.221.04-.497.088-.804.165-.311.079-.67.143-1.067.26-.801.206-1.756.517-2.828.926a26.48 26.48 0 0 0-3.456 1.683 25.581 25.581 0 0 0-5.494 4.32 27.908 27.908 0 0 0-1.684 1.953 24.107 24.107 0 0 0-2.833 4.577 23.846 23.846 0 0 0-1.823 5.242L8.534 26l-.117.688c-.091.457-.133.921-.198 1.381-.049.462-.086.924-.117 1.385l-.024.692-.013.346.006.33c.012.471.013.95.034 1.41l.111 1.332c.112.888.229 1.775.43 2.627l.136.64.174.624c.12.413.216.83.367 1.224.14.397.265.796.411 1.182l.468 1.13c.151.372.344.72.51 1.074.086.176.172.35.259.523l.283.497c.193.327.358.663.559.97l.585.905c.8 1.16 1.606 2.177 2.391 3.016l.57.61c.183.197.381.364.558.54.36.344.687.668 1.01.925l.847.714.654.493.545.411.015.012a.298.298 0 1 1-.337.492l-.592-.374-.712-.449c-.272-.189-.577-.417-.923-.669-.353-.244-.712-.553-1.109-.882-.196-.168-.41-.333-.611-.525l-.628-.598c-.445-.401-.86-.885-1.322-1.374-.234-.241-.435-.523-.662-.793l-.337-.417a5.502 5.502 0 0 1-.332-.436c-.89-1.181-1.72-2.561-2.469-4.087-.748-1.528-1.344-3.234-1.779-5.042-.23-.903-.374-1.835-.511-2.788l-.136-1.462c-.024-.477-.028-.943-.043-1.419l-.01-.382.01-.368.023-.736c.03-.492.064-.985.113-1.477.113-.983.255-1.97.491-2.936a25.525 25.525 0 0 1 1.972-5.579c.857-1.758 1.926-3.37 3.09-4.815a24.691 24.691 0 0 1 3.785-3.762 25.085 25.085 0 0 1 7.67-4.207c.571-.178 1.101-.353 1.604-.472.497-.137.962-.23 1.38-.316.415-.097.802-.14 1.13-.195.331-.057.606-.083.83-.106l.687-.074a.32.32 0 0 1 .351.284.322.322 0 0 1-.26.35"/>
        <path fill="#3dc00f" d="M9.901 14.465l-.247.348c-.156.227-.411.559-.68.982-.138.213-.295.443-.457.703l-.508.855c-.175.308-.346.645-.537.994-.186.35-.359.731-.552 1.121a59.4 59.4 0 0 0-.54 1.247l-.255.669c-.09.225-.175.455-.25.693l-.237.72c-.078.242-.14.494-.214.744-.155.5-.263 1.024-.391 1.552-.061.264-.103.535-.156.805-.051.271-.105.543-.138.82l-.12.835-.083.847-.041.426-.02.43c-.013.286-.032.573-.04.861.007.577-.017 1.156.021 1.735.015.288.02.579.042.867l.016.202.022.221.045.442.044.441.06.422c.044.281.077.56.129.84.187 1.124.458 2.215.767 3.256.315 1.04.69 2.022 1.082 2.94.417.904.82 1.76 1.265 2.51.43.758.86 1.431 1.261 2.017.407.58.774 1.08 1.099 1.474.313.403.576.706.755.914l.272.319.012.013a.414.414 0 1 1-.612.56l-.302-.31c-.195-.205-.492-.495-.834-.898a25.568 25.568 0 0 1-1.209-1.475 24.37 24.37 0 0 1-1.401-2.043l-.361-.595-.35-.632c-.248-.424-.455-.889-.691-1.354a28.42 28.42 0 0 1-1.203-3.056 28.455 28.455 0 0 1-.856-3.41c-.057-.294-.094-.6-.142-.9l-.066-.453-.047-.44-.047-.442-.023-.222-.02-.24c-.025-.304-.032-.608-.048-.912-.042-.608-.024-1.218-.023-1.824.01-.303.03-.605.045-.907l.024-.451.045-.448c.094-1.197.316-2.359.562-3.472.143-.552.266-1.1.437-1.622.081-.262.157-.523.245-.777l.27-.746c.084-.247.18-.486.28-.72l.287-.69c.204-.447.408-.876.61-1.283.217-.4.413-.79.621-1.147.216-.354.413-.694.612-1.004l.573-.859c.183-.262.364-.498.52-.713.31-.44.58-.733.755-.954l.27-.329a.411.411 0 0 1 .58-.056.415.415 0 0 1 .073.56"/>
        <g transform="translate(0 26.511)">
            <mask id="b" fill="#fff">
                <use xlink:href="#a"/>
            </mask>
            <path fill="#3dc00f" d="M1.255.473l-.077.794c-.02.249-.05.547-.068.896-.024.348-.032.741-.047 1.169-.02.856-.01 1.855.07 2.92.033.532.093 1.08.163 1.636l.118.837c.049.28.09.56.145.84.055.279.107.559.171.834.058.278.12.553.188.825.035.14.063.265.101.404l.109.405.222.778c.31 1.021.646 1.96.967 2.754.32.794.61 1.449.827 1.9l.341.711.004.007a.363.363 0 0 1-.169.484.36.36 0 0 1-.46-.128l-.115-.178a22.191 22.191 0 0 1-1.34-2.392 23.692 23.692 0 0 1-1.137-2.814c-.085-.264-.174-.533-.253-.812l-.115-.41c-.039-.135-.076-.287-.111-.425a22.29 22.29 0 0 1-.378-1.73 25.084 25.084 0 0 1-.39-3.463 26.736 26.736 0 0 1-.016-1.603c.01-.51.04-.99.076-1.433.035-.443.083-.847.133-1.204.045-.357.1-.67.14-.927C.397.892.443.701.467.566L.51.361a.377.377 0 0 1 .746.112" mask="url(#b)"/>
        </g>
        <g transform="translate(10.127 .313)">
            <mask id="d" fill="#fff">
                <use xlink:href="#c"/>
            </mask>
            <path fill="#3dc00f" d="M42.015 41.162A21.46 21.46 0 0 1 23.367 52.02c-3.356 0-6.763-.792-9.942-2.46C2.912 44.043-1.151 31.02 4.349 20.476a21.852 21.852 0 0 1 2.825-4.173A21.499 21.499 0 0 1 17.29 9.737a21.246 21.246 0 0 1 6.11-.892c.741 0 2.756.176 2.756.176-.175-1.45-.433-2.976.124-4.373.093-.234.206-.46.336-.676A4.49 4.49 0 0 1 28.58 2.24a6.42 6.42 0 0 1 2.193-.549c.223-.018.447-.026.672-.026.359 0 .717.022 1.073.064.648.075 1.288.218 1.912.409.813.248 1.598.58 2.357.957 1.434.711 2.814 1.5 3.98 2.612 1.095 1.044 1.992 2.317 2.439 3.775a4.547 4.547 0 0 1-1.756 5.074s-1.211.727-2.333 1.315l.002-.001c.178.192.596.617.636.66.19.211.372.43.548.655.232.295.454.6.667.907.22.315.433.636.635.963.106.169.201.343.295.519h1.658c-.232-.436-.47-.866-.73-1.283a24.037 24.037 0 0 0-.677-1.029c-.263-.377-.49-.686-.716-.972l-.028-.035c.446-.257.756-.443.781-.458l.039-.023.038-.025a5.961 5.961 0 0 0 2.318-6.692c-.49-1.599-1.44-3.078-2.824-4.397-1.367-1.303-2.957-2.178-4.332-2.86A16.944 16.944 0 0 0 34.851.756a12.402 12.402 0 0 0-2.166-.462 10.8 10.8 0 0 0-1.24-.073c-.261 0-.524.01-.785.03-.978.078-1.881.306-2.685.678a5.92 5.92 0 0 0-2.59 2.291c-.172.283-.32.582-.444.89-.446 1.12-.488 2.25-.411 3.317a23.041 23.041 0 0 0-3.436.088 22.786 22.786 0 0 0-11.833 4.8 23.008 23.008 0 0 0-3.177 3.043 23.376 23.376 0 0 0-3.012 4.448 22.91 22.91 0 0 0-1.566 17.529c1.83 5.862 5.826 10.658 11.25 13.505a22.925 22.925 0 0 0 10.611 2.625c8.556 0 16.333-4.714 20.309-12.303h-1.661z" mask="url(#d)"/>
        </g>
        <path fill="#3dc00f" d="M55.463 18.304c.312.52.61 1.046.889 1.584h1.103c-.045-.095-.093-.19-.134-.287-.59-1.382-.59-1.382-.434-1.648.08-.125.15-.254.225-.38.082-.134.144-.28.217-.42.074-.139.129-.287.19-.43.065-.144.114-.293.165-.44.055-.147.098-.297.138-.448.046-.15.08-.3.112-.453a5.14 5.14 0 0 0 .084-.457c.027-.152.044-.305.058-.459a4.92 4.92 0 0 0 .031-.46c.016-.306.01-.613-.013-.917-.006-.152-.026-.303-.044-.454-.014-.151-.045-.3-.068-.45-.023-.149-.064-.302-.095-.452-.036-.147-.077-.282-.115-.423a.304.304 0 0 0-.595.125v.005c.02.142.05.29.065.427.011.137.031.268.036.407.006.139.02.276.017.415 0 .138.002.276-.008.413a6.748 6.748 0 0 1-.082.818c-.02.135-.043.27-.075.402a4.183 4.183 0 0 1-.096.395c-.034.131-.072.26-.119.387a4.131 4.131 0 0 1-.14.379c-.05.124-.1.248-.162.367-.058.12-.113.241-.182.356-.066.115-.126.233-.202.342-.075.11-.138.226-.22.33-.081.104-.156.213-.24.315l-.255.299a.677.677 0 0 0-.065.787l.014.025zM56.882 41.475c-.067.142-.135.283-.2.426-.171.33-.335.664-.516.99a25.283 25.283 0 0 1-1.156 1.91c-.414.62-.852 1.224-1.318 1.807a25.312 25.312 0 0 1-3.088 3.24.282.282 0 0 0-.033.39.28.28 0 0 0 .394.04 26.024 26.024 0 0 0 3.288-3.203c.5-.582.977-1.186 1.42-1.814a26.3 26.3 0 0 0 1.249-1.94c.196-.332.376-.672.562-1.01.137-.279.282-.555.417-.836h-1.019zM28.637 38.181l-.004-15.317 1.01.12 1.595 4.339 2.25-.016v-6.732c-5.211-.336-8.852-.613-14.548-1.228l-.002 7.113 2.293-.01 1.547-3.867 1.49.078.002 15.918-2.077.815v2.257c1.217-.134 6.507-.571 8.704-.698v-2.215l-2.26-.557zM81.782 30.597c.012-7.594-.805-9.36-6.902-9.34-6.368.022-6.92 3.096-6.896 9.517.022 6.543.544 9.012 6.902 9.368 6.697.374 6.888-3.158 6.896-9.545m-6.896 6.914c-2.559.009-2.596-1.746-2.614-6.912-.018-5.006-.026-6.698 2.504-6.71 2.56-.009 2.598 1.683 2.617 6.88.02 5.012.024 6.734-2.507 6.742M49.795 34.867l.002-10.679 2.164-.488v-2.384c-.535-.018-7.148-.211-7.944-.255v2.157l1.702.69.002 10.974c.005 1.997-.83 2.732-2.516 2.737-1.682.007-2.585-.756-2.592-2.684v-11.08l1.682-.706.006-2.147c-1.622-.08-5.196-.228-7.564-.373v2.149l1.73.803v11.635c.014 3.79 2.13 5.245 6.714 5.23 4.589-.019 6.628-1.82 6.614-5.579M63.092 30.067s3.368-.139 3.4-3.74c.033-3.753-2.347-4.739-6.027-4.772l-7.346-.198-.033 2.242 1.6.525-.171 13.207-1.69.633-.024 1.967c2.729-.041 6.956-.003 6.956-.003 5.345.05 7.282-1.567 7.316-5.232.04-3.969-3.98-4.63-3.98-4.63zm-4.448-6.142l1.504.075c1.475.106 2.271.538 2.25 2.72-.02 2.032-.962 2.431-2.601 2.415l-1.221-.01.068-5.2zm.793 13.515l-.968-.007.071-5.524 1.264.012c2.041.018 3.01.673 2.991 2.888-.02 2.217-1.316 2.651-3.358 2.631z"/>
        <g transform="translate(82.085 19.026)">
            <mask id="f" fill="#fff">
                <use xlink:href="#e"/>
            </mask>
            <path fill="#3dc00f" d="M14.66 18.677l-2.746-6.122s2.925-.763 2.926-5.471c-.002-4.342-2.95-5.325-6.215-5.203L.13 2.177.13 4.39l1.78.828-.003 13.077-1.859.617.001 2.166c2.826.068 6.098.2 7.831.28l-.004-2.165-1.776-.706.01-4.698 1.79-.01 3.366 7.733c1.098.045 3.622.212 5.234.294l.004-2.428-1.843-.7zm15.954-7.565l-6.557.001v2.351l2.035.784v4.949s-.54.34-1.956.284c-2.763-.119-2.976-2.155-2.997-8.034-.016-5.442-.027-7.434 2.731-7.568 1.485-.075 1.908.25 1.908.25l1.457 3.972 2.86-.068V.335l-2.953.32-.333.784S25.45.623 23.197.776c-5.614.38-6.669 3.395-6.642 10.94.023 7.164.614 10.42 7.418 10.833 4.202.255 6.642-.205 6.642-.205V11.112zm-23.298-.37l-1.217.004V4.882a27.725 27.725 0 0 1 1.735-.14c1.377-.05 2.438.396 2.44 2.593-.001 2.5-.833 3.4-2.958 3.407z" mask="url(#f)"/>
        </g>
    </g>
</svg>
